<svg xmlns="http://www.w3.org/2000/svg" viewBox="0 0 2048 2048" role="img" aria-label="Ari Real Estate">
  <g transform="translate(0 2048) scale(.1 -.1)" fill="#EFD391">
    <path d="M10477 14141c125-124 338-333 473-465 397-389 775-760 1090-1070 659-650 1275-1253 1311-1286l39-35-2-607-3-606-1573 1570c-866 863-1575 1568-1577 1566-2-1-709-707-1572-1568l-1568-1565-3 605-2 605 92 90c163 158 1102 1079 1413 1385 165 162 413 405 550 541 138 135 372 365 520 511 453 445 570 557 577 555 3-1 109-103 235-226zM10464 11810l216-220 0-2544 0-2544-52-47c-29-26-85-77-123-114-211-200-245-231-253-231-4 0-17 8-28 18-10 9-77 69-149 132-71 62-165 145-207 183l-78 70 0 2536 0 2536 222 222c123 123 226 223 229 223 3 0 103-99 223-220zM9002 9064l-2-1676-68 60c-37 33-236 213-442 399l-375 339-2 869-3 870 98 89c53 49 129 119 167 155 39 36 122 113 185 171 62 58 183 171 269 252 86 81 161 147 166 147 7 1 9-562 7-1675zM11648 10592c86-81 282-263 435-405l277-258 0-873 0-874-42-37c-24-21-106-95-183-165-293-266-641-576-652-584-10-6-13 331-13 1668 0 1111 3 1676 10 1676 6 0 81-66 168-148z" />
  </g>
</svg>
