<?xml version="1.0" standalone="no"?>
<!DOCTYPE svg PUBLIC "-//W3C//DTD SVG 20010904//EN"
 "http://www.w3.org/TR/2001/REC-SVG-20010904/DTD/svg10.dtd">
<svg version="1.0" xmlns="http://www.w3.org/2000/svg"
 width="2048.000000pt" height="2048.000000pt" viewBox="0 0 2048.000000 2048.000000"
 preserveAspectRatio="xMidYMid meet">

<g transform="translate(0.000000,2048.000000) scale(0.100000,-0.100000)"
fill="#000000" stroke="none">
<path d="M0 10240 l0 -10240 10240 0 10240 0 -2 10238 -3 10237 -10237 3
-10238 2 0 -10240z m10477 3901 c125 -124 338 -333 473 -465 397 -389 775
-760 1090 -1070 659 -650 1275 -1253 1311 -1286 l39 -35 -2 -607 -3 -606
-1573 1570 c-866 863 -1575 1568 -1577 1566 -2 -1 -709 -707 -1572 -1568
l-1568 -1565 -3 605 -2 605 92 90 c163 158 1102 1079 1413 1385 165 162 413
405 550 541 138 135 372 365 520 511 453 445 570 557 577 555 3 -1 109 -103
235 -226z m-13 -2331 l216 -220 0 -2544 0 -2544 -52 -47 c-29 -26 -85 -77
-123 -114 -211 -200 -245 -231 -253 -231 -4 0 -17 8 -28 18 -10 9 -77 69 -149
132 -71 62 -165 145 -207 183 l-78 70 0 2536 0 2536 222 222 c123 123 226 223
229 223 3 0 103 -99 223 -220z m-1462 -2746 l-2 -1676 -68 60 c-37 33 -236
213 -442 399 l-375 339 -2 869 -3 870 98 89 c53 49 129 119 167 155 39 36 122
113 185 171 62 58 183 171 269 252 86 81 161 147 166 147 7 1 9 -562 7 -1675z
m2646 1528 c86 -81 282 -263 435 -405 l277 -258 0 -873 0 -874 -42 -37 c-24
-21 -106 -95 -183 -165 -293 -266 -641 -576 -652 -584 -10 -6 -13 331 -13
1668 0 1111 3 1676 10 1676 6 0 81 -66 168 -148z"/>
</g>
</svg>
