<?xml version="1.0" encoding="UTF-8"?>
<svg version="1.1" xmlns="http://www.w3.org/2000/svg" width="225" height="225">
<path d="M0 0 C74.25 0 148.5 0 225 0 C225 74.25 225 148.5 225 225 C150.75 225 76.5 225 0 225 C0 150.75 0 76.5 0 0 Z " fill="#000000" transform="translate(0,0)"/>
<path d="M0 0 C-0.55068537 3.92363329 -1.61747884 6.23139569 -4 9.375 C-13.75810031 22.87863377 -21.45005093 37.83355589 -29.51708984 52.37548828 C-30.96742053 54.94233959 -32.48313731 57.47189551 -34 60 C-29.71 60 -25.42 60 -21 60 C-21 61.32 -21 62.64 -21 64 C-26.28 64 -31.56 64 -37 64 C-37.66 65.98 -38.32 67.96 -39 70 C-40.15386539 72.42118038 -41.33381808 74.80548411 -42.5625 77.1875 C-43.28002876 78.60607218 -43.99611418 80.02537511 -44.7109375 81.4453125 C-45.08444336 82.1868457 -45.45794922 82.92837891 -45.84277344 83.69238281 C-51.80622195 95.58405272 -57.1259386 107.25760528 -61 120 C-61.66117344 122.0018227 -62.32608482 124.00243078 -63 126 C-64.98 125.505 -64.98 125.505 -67 125 C-64.12001437 103.89665699 -51.43349293 83.74988042 -42 65 C-44.77618671 64.90371607 -47.52600904 64.88784563 -50.30419922 64.94848633 C-54 65 -54 65 -57.63720703 64.71362305 C-68.51524138 64.67378419 -74.10893675 68.75209072 -81.77734375 76.27734375 C-85.08106446 79.61256143 -88.31517969 83.0024944 -91.52032471 86.43206787 C-93.8921065 88.95155613 -96.31091156 91.42506292 -98.72460938 93.90429688 C-107.42670046 102.48474021 -107.42670046 102.48474021 -115 112 C-116.32 112 -117.64 112 -119 112 C-118.34711541 108.48202962 -117.46379147 105.11342948 -116.4375 101.6875 C-114.50158809 94.53804313 -113.76521222 88.52611873 -117.5625 81.828125 C-121.1909034 77.21374241 -125.77096237 75.33560791 -131.4765625 74.4765625 C-134.65682951 74.22020111 -137.81041201 74.05422793 -141 74 C-141.33 72.68 -141.66 71.36 -142 70 C-138.77320626 68.38660313 -135.19203984 68.30563656 -131.64453125 67.87890625 C-130.79862427 67.77467346 -129.95271729 67.67044067 -129.08117676 67.56304932 C-126.32544828 67.22530355 -123.56902565 66.89367154 -120.8125 66.5625 C-119.88182709 66.44917328 -118.95115417 66.33584656 -117.99227905 66.21908569 C-106.22095371 64.78667585 -94.46137207 63.42364432 -82.6262207 62.63305664 C-74.52561381 62.05115592 -69.77507932 60.39299088 -64.125 54.3125 C-63.07358063 53.21945957 -62.02019609 52.12830604 -60.96484375 51.0390625 C-60.45808105 50.51344727 -59.95131836 49.98783203 -59.42919922 49.44628906 C-57.01387854 47.00208686 -54.40692758 44.80012596 -51.79296875 42.57421875 C-49.94570371 40.9523281 -48.22243286 39.25339795 -46.5 37.5 C-43.53264677 34.48586418 -40.42654708 31.70082667 -37.22265625 28.94140625 C-34.67023117 26.71195939 -32.18112486 24.41998618 -29.6875 22.125 C-24.28786355 17.20267948 -18.69178827 12.57799949 -13 8 C-12.07316406 7.22785156 -11.14632812 6.45570312 -10.19140625 5.66015625 C-9.30324219 4.92667969 -8.41507813 4.19320312 -7.5 3.4375 C-6.7059375 2.77621094 -5.911875 2.11492188 -5.09375 1.43359375 C-3 0 -3 0 0 0 Z " fill="#EBEBEB" transform="translate(146,37)"/>
<path d="M0 0 C-0.33 2.97 -0.66 5.94 -1 9 C3.56216999 12.04144666 8.04082063 11.46097152 13.35400391 10.63330078 C15.6875876 10.15775029 17.9986151 9.62586372 20.3125 9.0625 C21.09689453 8.88009766 21.88128906 8.69769531 22.68945312 8.50976562 C24.79589021 8.01760743 26.89888856 7.51437131 29 7 C29.7221167 6.87681396 30.4442334 6.75362793 31.18823242 6.62670898 C31.78611572 6.41989502 32.38399902 6.21308105 33 6 C33.33 5.01 33.66 4.02 34 3 C34.99 3 35.98 3 37 3 C36.57945436 7.48582011 34.62878124 10.40542288 32.15625 14.03515625 C30.98064794 16.03288542 30.44356716 17.73679938 30 20 C44.59877879 17.46213283 58.71286795 12.58988924 72.22265625 6.53125 C74 6 74 6 77 7 C77 7.99 77 8.98 77 10 C72.94043106 11.59091829 68.87682534 13.17127679 64.8125 14.75 C63.11577148 15.41515625 63.11577148 15.41515625 61.38476562 16.09375 C37.74989817 25.25141944 37.74989817 25.25141944 27 24 C26 23 26 23 25.8125 19.6875 C25.98776482 16.24062513 26.38653135 14.88893794 28 12 C27.46922852 12.21076172 26.93845703 12.42152344 26.39160156 12.63867188 C20.41124068 14.84401103 15.09906883 15.5191237 8.75 15.5 C7.87859375 15.52835938 7.0071875 15.55671875 6.109375 15.5859375 C1.55870804 15.59981148 -0.37063757 15.49703494 -4.046875 12.59375 C-6 10 -6 10 -7 8 C-13.68232648 12.98522769 -20.33306643 17.99959964 -25 25 C-25.99 24.67 -26.98 24.34 -28 24 C-27.38162597 19.22836758 -25.42294105 15.49533071 -23.1875 11.3125 C-22.84396484 10.63638672 -22.50042969 9.96027344 -22.14648438 9.26367188 C-18.94827774 3.23328226 -18.94827774 3.23328226 -15 2 C-14 5 -14 5 -15 8 C-14.45730469 7.59007813 -13.91460937 7.18015625 -13.35546875 6.7578125 C-12.28232422 5.94957031 -12.28232422 5.94957031 -11.1875 5.125 C-10.47980469 4.59132813 -9.77210938 4.05765625 -9.04296875 3.5078125 C-4.29015544 0 -4.29015544 0 0 0 Z " fill="#ECECEC" transform="translate(144,104)"/>
<path d="M0 0 C0 3.84309772 -1.639126 5.98237255 -3.625 9.125 C-8.0923134 16.37082096 -12.28712864 23.75618576 -16.4375 31.1875 C-17.05254395 32.28658691 -17.66758789 33.38567383 -18.30126953 34.51806641 C-21.3303872 39.8142282 -21.3303872 39.8142282 -23.99072266 45.29516602 C-24.32378418 45.85776123 -24.6568457 46.42035645 -25 47 C-28.08984375 47.609375 -28.08984375 47.609375 -31.9375 47.75 C-32.93825562 47.79338501 -32.93825562 47.79338501 -33.95922852 47.83764648 C-39.63618208 48.06108442 -45.31988037 48.10628082 -51 48 C-51 47.34 -51 46.68 -51 46 C-49.53125 44.5546875 -49.53125 44.5546875 -47.5 42.875 C-44.53322639 40.35742098 -41.72425751 37.77831024 -39 35 C-35.89286078 31.85079119 -32.67509696 28.92023033 -29.3203125 26.0390625 C-26.95879255 23.96378739 -24.65906304 21.83368084 -22.36157227 19.68823242 C-16.81580994 14.50965343 -11.1793253 9.57017461 -5.2421875 4.83984375 C-3.37317239 3.3062094 -1.66598362 1.74764949 0 0 Z " fill="#040404" transform="translate(133,50)"/>
<path d="M0 0 C0 0.66 0 1.32 0 2 C-1.35229492 3.33105469 -1.35229492 3.33105469 -3.29296875 4.921875 C-8.93784715 9.72232237 -14.10040941 14.99216661 -19.3125 20.25 C-20.31030974 21.25284017 -21.30835524 22.25544582 -22.30664062 23.2578125 C-24.12816884 25.08743284 -25.94804615 26.91863841 -27.7668457 28.75097656 C-29.50772389 30.5042257 -31.25132763 32.25453359 -33 34 C-32.95359375 33.24976563 -32.9071875 32.49953125 -32.859375 31.7265625 C-32.58329628 23.89775881 -33.03860694 16.38582803 -38.53125 10.3046875 C-40.54705556 8.57544254 -42.62485455 7.18757273 -45 6 C-45 5.34 -45 4.68 -45 4 C-40.19942757 3.42285684 -35.39801321 2.85351728 -30.59570312 2.29101562 C-28.96622504 2.099085 -27.33698513 1.90511983 -25.70800781 1.70898438 C-17.10159779 0.67410317 -8.6863628 -0.28077132 0 0 Z " fill="#040404" transform="translate(68,104)"/>
<path d="M0 0 C6.15234375 -0.09765625 6.15234375 -0.09765625 8 0 C9 1 9 1 9.125 3.4375 C9 6 9 6 8 8 C8.89163577 10.11683841 8.89163577 10.11683841 10 12 C8.0625 11.625 8.0625 11.625 6 11 C5.67 10.34 5.34 9.68 5 9 C4.01 8.67 3.02 8.34 2 8 C2 9.32 2 10.64 2 12 C1.34 12 0.68 12 0 12 C0 8.04 0 4.08 0 0 Z " fill="#A08208" transform="translate(25,173)"/>
<path d="M0 0 C2.97 0 5.94 0 9 0 C9 0.99 9 1.98 9 3 C7.02 3 5.04 3 3 3 C3 3.99 3 4.98 3 6 C4.98 6 6.96 6 9 6 C9 6.66 9 7.32 9 8 C7.02 8 5.04 8 3 8 C3 8.99 3 9.98 3 11 C4.98 11 6.96 11 9 11 C9 11.66 9 12.32 9 13 C6.03 13 3.06 13 0 13 C0 8.71 0 4.42 0 0 Z " fill="#BC9A0A" transform="translate(43,172)"/>
<path d="M0 0 C2.05078125 0.03255208 4.1015625 0.06510417 6.15234375 0.09765625 C6.15234375 1.08765625 6.15234375 2.07765625 6.15234375 3.09765625 C4.17234375 3.09765625 2.19234375 3.09765625 0.15234375 3.09765625 C0.15234375 4.08765625 0.15234375 5.07765625 0.15234375 6.09765625 C1.80234375 6.09765625 3.45234375 6.09765625 5.15234375 6.09765625 C5.15234375 6.75765625 5.15234375 7.41765625 5.15234375 8.09765625 C3.50234375 8.09765625 1.85234375 8.09765625 0.15234375 8.09765625 C0.15234375 9.08765625 0.15234375 10.07765625 0.15234375 11.09765625 C2.13234375 11.09765625 4.11234375 11.09765625 6.15234375 11.09765625 C6.15234375 11.75765625 6.15234375 12.41765625 6.15234375 13.09765625 C3.18234375 13.09765625 0.21234375 13.09765625 -2.84765625 13.09765625 C-2.87452178 11.11856227 -2.89399 9.13936654 -2.91015625 7.16015625 C-2.92175781 6.05800781 -2.93335937 4.95585937 -2.9453125 3.8203125 C-2.81361949 0.14871139 -2.81361949 0.14871139 0 0 Z " fill="#AD8D06" transform="translate(108.84765625,171.90234375)"/>
<path d="M0 0 C0.99 0 1.98 0 3 0 C3.83819158 1.62249941 4.6704116 3.24808497 5.5 4.875 C5.9640625 5.77992188 6.428125 6.68484375 6.90625 7.6171875 C8 10 8 10 8 12 C7.01 12 6.02 12 5 12 C4.67 11.34 4.34 10.68 4 10 C0.97065509 9.34227572 0.97065509 9.34227572 -2 9 C-2.33 9.99 -2.66 10.98 -3 12 C-3.66 12 -4.32 12 -5 12 C-4.54738642 10.56068883 -4.08767021 9.12361001 -3.625 7.6875 C-3.24214844 6.48673828 -3.24214844 6.48673828 -2.8515625 5.26171875 C-2 3 -2 3 0 0 Z " fill="#E4BC05" transform="translate(160,173)"/>
<path d="M0 0 C1.859375 0.22265625 1.859375 0.22265625 4 1 C5.265625 2.99609375 5.265625 2.99609375 6.25 5.4375 C6.58515625 6.24058594 6.9203125 7.04367188 7.265625 7.87109375 C8 10 8 10 8 12 C7.01 11.67 6.02 11.34 5 11 C5 10.34 5 9.68 5 9 C2.02934491 9.34227572 2.02934491 9.34227572 -1 10 C-1.33 10.66 -1.66 11.32 -2 12 C-2.99 12 -3.98 12 -5 12 C-3.68938409 7.76570244 -2.05643741 3.92592596 0 0 Z " fill="#BE9C09" transform="translate(64,173)"/>
<path d="M0 0 C2.97 0 5.94 0 9 0 C9 0.99 9 1.98 9 3 C7.02 3 5.04 3 3 3 C3 3.66 3 4.32 3 5 C4.65 5 6.3 5 8 5 C8 5.66 8 6.32 8 7 C6.02 7 4.04 7 2 7 C2 8.32 2 9.64 2 11 C4.31 11 6.62 11 9 11 C9 11.66 9 12.32 9 13 C6.03 13 3.06 13 0 13 C0 8.71 0 4.42 0 0 Z " fill="#C2A007" transform="translate(191,172)"/>
<path d="M0 0 C0 0.66 0 1.32 0 2 C-1.98 2 -3.96 2 -6 2 C-6 2.66 -6 3.32 -6 4 C-5.195625 4.144375 -4.39125 4.28875 -3.5625 4.4375 C-1 5 -1 5 0 6 C0.04063832 7.66617115 0.042721 9.33388095 0 11 C-2.31 11.33 -4.62 11.66 -7 12 C-7.66 11.01 -8.32 10.02 -9 9 C-7 9 -5 9 -3 9 C-2.67 8.34 -2.34 7.68 -2 7 C-2.804375 6.855625 -3.60875 6.71125 -4.4375 6.5625 C-7 6 -7 6 -8 5 C-8.04063832 3.33382885 -8.042721 1.66611905 -8 0 C-5.13822943 -1.43088528 -3.06624227 -0.59991697 0 0 Z " fill="#D7B107" transform="translate(132,173)"/>
<path d="M0 0 C2.97 0 5.94 0 9 0 C9 0.99 9 1.98 9 3 C8.01 3 7.02 3 6 3 C6 6.3 6 9.6 6 13 C5.01 13 4.02 13 3 13 C3 9.7 3 6.4 3 3 C1.68 3 0.36 3 -1 3 C-0.67 2.01 -0.34 1.02 0 0 Z " fill="#B0900D" transform="translate(174,172)"/>
<path d="M0 0 C2.97 0 5.94 0 9 0 C9 0.99 9 1.98 9 3 C8.01 3 7.02 3 6 3 C6 6.3 6 9.6 6 13 C5.01 13 4.02 13 3 13 C3 9.7 3 6.4 3 3 C2.01 3 1.02 3 0 3 C0 2.01 0 1.02 0 0 Z " fill="#B5930C" transform="translate(140,172)"/>
<path d="M0 0 C0.66 0 1.32 0 2 0 C2 2.97 2 5.94 2 9 C3.98 9 5.96 9 8 9 C8 9.99 8 10.98 8 12 C5.36 12 2.72 12 0 12 C0 8.04 0 4.08 0 0 Z " fill="#D2AC05" transform="translate(80,173)"/>
<path d="M0 0 C0.33 0.99 0.66 1.98 1 3 C2.65 3 4.3 3 6 3 C6 3.66 6 4.32 6 5 C4.35 5 2.7 5 1 5 C1 5.99 1 6.98 1 8 C2.98 8 4.96 8 7 8 C7 8.33 7 8.66 7 9 C4.36 9 1.72 9 -1 9 C-0.67 6.03 -0.34 3.06 0 0 Z " fill="#E4BA05" transform="translate(108,175)"/>
<path d="M0 0 C0.99 0.33 1.98 0.66 3 1 C3.33 2.65 3.66 4.3 4 6 C2.68 6 1.36 6 0 6 C-1.125 2.25 -1.125 2.25 0 0 Z " fill="#7C6608" transform="translate(159,174)"/>
<path d="M0 0 C0 0.66 0 1.32 0 2 C-2.31 2.33 -4.62 2.66 -7 3 C-7.33 2.01 -7.66 1.02 -8 0 C-5.13822943 -1.43088528 -3.06624227 -0.59991697 0 0 Z " fill="#C19E08" transform="translate(132,173)"/>
<path d="M0 0 C6.15234375 -0.09765625 6.15234375 -0.09765625 8 0 C9 1 9 1 9.0625 3.5625 C9.041875 4.366875 9.02125 5.17125 9 6 C8.01 6 7.02 6 6 6 C6 4.68 6 3.36 6 2 C3.03 1.505 3.03 1.505 0 1 C0 0.67 0 0.34 0 0 Z " fill="#EFC406" transform="translate(25,173)"/>
<path d="M0 0 C2.0625 0.4375 2.0625 0.4375 4 1 C3.67 1.99 3.34 2.98 3 4 C0.9375 4.6875 0.9375 4.6875 -1 5 C-1 1 -1 1 0 0 Z " fill="#E8E8E8" transform="translate(185,96)"/>
<path d="M0 0 C3 3.75 3 3.75 3 6 C2.01 6 1.02 6 0 6 C-0.33 5.34 -0.66 4.68 -1 4 C-4.02934491 3.34227572 -4.02934491 3.34227572 -7 3 C-7 2.67 -7 2.34 -7 2 C-4.69 2 -2.38 2 0 2 C0 1.34 0 0.68 0 0 Z " fill="#BE9C0F" transform="translate(165,179)"/>
<path d="M0 0 C1.65 0 3.3 0 5 0 C5.33 1.65 5.66 3.3 6 5 C5.67 4.34 5.34 3.68 5 3 C3.35 3 1.7 3 0 3 C0 2.01 0 1.02 0 0 Z " fill="#231C0C" transform="translate(109,175)"/>
<path d="M0 0 C1.98 0 3.96 0 6 0 C6 0.99 6 1.98 6 3 C4.02 3 2.04 3 0 3 C0 2.01 0 1.02 0 0 Z " fill="#211B09" transform="translate(46,180)"/>
</svg>
